<?xml version="1.0" encoding="UTF-8"?>
<svg width="16" height="16" viewBox="0 0 16 16" fill="none" xmlns="http://www.w3.org/2000/svg">
    <defs>
        <linearGradient id="gradient" x1="0%" y1="0%" x2="100%" y2="100%">
            <stop offset="0%" stop-color="#4C84FF" />
            <stop offset="100%" stop-color="#8A56FF" />
        </linearGradient>
    </defs>
    <path d="M2 3C2 2.44772 2.44772 2 3 2H13C13.5523 2 14 2.44772 14 3V13C14 13.5523 13.5523 14 13 14H3C2.44772 14 2 13.5523 2 13V3Z" fill="#2B2B2B" stroke="url(#gradient)" stroke-width="1"/>
    <path d="M4 5H7V7H4V5Z" fill="url(#gradient)"/>
    <path d="M9 5H12V7H9V5Z" fill="url(#gradient)"/>
    <path d="M4 9H7V11H4V9Z" fill="url(#gradient)"/>
    <path d="M9 9H12V11H9V9Z" fill="url(#gradient)"/>
</svg>